ply
format ascii 1.0
comment Created by Blender 3.6.0 - www.blender.org
element vertex 468
property float x
property float y
property float z
property float nx
property float ny
property float nz
element face 898
property list uchar uint vertex_indices
end_header
-0.019983 0.027438 0.037440 -0.204225 -0.355495 0.912094
-0.019983 0.024965 0.036891 -0.240420 0.159225 0.957521
-0.018564 0.025852 0.037579 -0.449960 -0.044687 0.891930
-0.042531 0.027723 0.033153 -0.419436 -0.412061 0.808875
-0.044459 0.026640 0.031734 -0.389753 -0.303696 0.869403
-0.042531 0.025776 0.032797 -0.555460 -0.026605 0.831118
0.019983 0.024965 0.036891 0.240420 0.159225 0.957521
0.019983 0.027438 0.037440 0.204225 -0.355495 0.912094
0.018564 0.025852 0.037579 0.449960 -0.044687 0.891930
0.044459 0.026640 0.031734 0.389753 -0.303696 0.869403
0.042531 0.027723 0.033153 0.419436 -0.412061 0.808876
0.042531 0.025776 0.032797 0.555460 -0.026605 0.831118
0.021531 -0.042763 0.040381 -0.401466 -0.002853 0.915869
0.018451 -0.040989 0.042473 0.262054 -0.723972 0.638117
0.018266 -0.043995 0.043990 0.375540 0.787562 0.488585
-0.021531 -0.042763 0.040381 0.401466 -0.002853 0.915869
-0.018266 -0.043995 0.043990 -0.375540 0.787562 0.488585
-0.018451 -0.040989 0.042473 -0.262053 -0.723972 0.638117
0.077431 0.023650 -0.020052 0.976863 -0.041222 0.209858
0.075558 0.041068 -0.009919 0.941626 0.005195 0.336621
0.072145 0.022630 0.000731 0.930270 0.024233 0.366075
-0.077431 0.023650 -0.020052 -0.976863 -0.041222 0.209858
-0.072145 0.022630 0.000731 -0.930270 0.024233 0.366075
-0.075558 0.041068 -0.009919 -0.941626 0.005195 0.336621
0.068473 0.036629 0.007247 0.897402 0.022533 0.440638
-0.068473 0.036629 0.007247 -0.897402 0.022533 0.440638
0.007115 -0.033294 0.058770 0.300969 -0.136346 0.943837
0.000000 -0.034064 0.059795 -0.000000 -0.169223 0.985578
0.006727 -0.036880 0.057378 0.227642 -0.583799 0.779332
-0.007115 -0.033294 0.058770 -0.300969 -0.136346 0.943837
-0.006727 -0.036880 0.057378 -0.227642 -0.583799 0.779332
0.000000 -0.037068 0.058649 -0.000000 -0.597909 0.801564
0.024302 0.011315 0.040390 0.361315 0.306703 0.880559
0.025276 0.016173 0.038654 0.233186 0.154496 0.960081
0.018207 0.014680 0.042241 0.552387 0.347791 0.757568
-0.024302 0.011315 0.040390 -0.361315 0.306703 0.880559
-0.018207 0.014680 0.042241 -0.552387 0.347791 0.757568
-0.025276 0.016173 0.038654 -0.233186 0.154496 0.960081
0.019709 0.018585 0.039618 0.354636 0.323212 0.877364
-0.019709 0.018585 0.039618 -0.354636 0.323212 0.877364
0.014316 -0.035010 0.054962 0.489477 -0.206971 0.847098
-0.014316 -0.035010 0.054962 -0.489477 -0.206971 0.847098
0.012626 -0.037877 0.054178 0.313542 -0.642672 0.699046
-0.012626 -0.037877 0.054178 -0.313542 -0.642672 0.699046
0.013911 0.018510 0.044490 0.698683 0.379407 0.606542
0.013033 0.014165 0.048311 0.787169 0.331812 0.519871
-0.013911 0.018510 0.044490 -0.698683 0.379407 0.606542
-0.013033 0.014165 0.048311 -0.787169 0.331812 0.519871
0.017187 0.009746 0.045584 0.650180 0.312713 0.692442
-0.017187 0.009746 0.045584 -0.650180 0.312713 0.692442
0.015795 0.020979 0.040850 0.558902 0.403219 0.724598
-0.015795 0.020979 0.040850 -0.558902 0.403219 0.724598
0.030639 0.065661 0.045300 0.379436 0.290871 0.878307
0.045386 0.063199 0.036834 0.618417 0.267528 0.738911
0.035240 0.080060 0.037292 0.468363 0.338325 0.816194
-0.030639 0.065661 0.045300 -0.379436 0.290871 0.878307
-0.035240 0.080060 0.037292 -0.468363 0.338325 0.816194
-0.045386 0.063199 0.036834 -0.618417 0.267528 0.738911
0.051332 0.074856 0.026604 0.699601 0.266664 0.662910
-0.051332 0.074856 0.026604 -0.699601 0.266664 0.662910
0.000000 -0.087652 0.048914 -0.000000 -0.523729 0.851885
0.000000 -0.094034 0.042645 0.000000 -0.694015 0.719961
0.013137 -0.086400 0.047025 0.349175 -0.461915 0.815298
-0.013137 -0.086400 0.047025 -0.349175 -0.461915 0.815298
0.012929 -0.092959 0.040941 0.330142 -0.647537 0.686806
-0.012929 -0.092959 0.040941 -0.330142 -0.647537 0.686806
0.022885 0.023989 0.036976 -0.016523 0.186230 0.982367
0.022885 0.028865 0.037750 -0.018992 -0.467695 0.883686
-0.022885 0.023989 0.036976 0.016523 0.186230 0.982367
-0.022885 0.028865 0.037750 0.018992 -0.467695 0.883686
0.047655 -0.007016 0.035346 0.597313 0.017516 0.801817
0.044323 0.007221 0.035226 0.433570 0.184964 0.881933
0.033273 0.001049 0.041139 0.346802 0.206429 0.914940
-0.047655 -0.007016 0.035346 -0.597313 0.017516 0.801817
-0.033273 0.001049 0.041139 -0.346802 0.206429 0.914940
-0.044323 0.007221 0.035226 -0.433570 0.184964 0.881933
0.033007 0.008616 0.038728 0.294385 0.269931 0.916774
-0.033007 0.008616 0.038728 -0.294385 0.269931 0.916774
0.019149 -0.038031 0.050289 0.496149 -0.447259 0.744174
-0.019149 -0.038031 0.050289 -0.496149 -0.447259 0.744174
0.017326 -0.039528 0.050006 0.306155 -0.739426 0.599598
-0.017326 -0.039528 0.050006 -0.306155 -0.739426 0.599598
0.000000 0.048860 0.053853 0.000000 0.011388 0.999935
0.013956 0.050120 0.053160 0.130393 -0.014560 0.991355
0.000000 0.065454 0.050273 0.000000 0.262284 0.964991
-0.013956 0.050120 0.053160 -0.130393 -0.014560 0.991355
0.016195 0.065992 0.049211 0.154870 0.280136 0.947385
-0.016195 0.065992 0.049211 -0.154870 0.280136 0.947385
0.013058 -0.006728 0.064160 0.866778 0.005131 0.498668
0.016086 -0.009425 0.058142 0.904982 -0.163343 0.392845
0.013340 -0.002838 0.060970 0.870660 0.325730 0.368580
-0.013058 -0.006728 0.064160 -0.866778 0.005131 0.498668
-0.013340 -0.002838 0.060970 -0.870660 0.325730 0.368580
-0.016086 -0.009425 0.058142 -0.904982 -0.163343 0.392845
0.016513 -0.006109 0.055813 0.945658 0.218652 0.240670
-0.016513 -0.006109 0.055813 -0.945658 0.218652 0.240670
0.022667 -0.074258 0.043898 0.555480 -0.054738 0.829726
0.030840 -0.068098 0.038142 0.601887 -0.115214 0.790226
0.019386 -0.066144 0.045211 0.479495 0.003786 0.877536
-0.022667 -0.074258 0.043898 -0.555480 -0.054738 0.829726
-0.019386 -0.066144 0.045211 -0.479495 0.003786 0.877536
-0.030840 -0.068098 0.038142 -0.601887 -0.115214 0.790226
0.026803 -0.061116 0.040962 0.505771 -0.056766 0.860798
-0.026803 -0.061116 0.040962 -0.505771 -0.056766 0.860798
0.021178 -0.041371 0.045551 0.150847 -0.824726 0.545043
-0.021178 -0.041371 0.045551 -0.150847 -0.824726 0.545043
0.022853 -0.040512 0.045824 0.330050 -0.616552 0.714794
-0.022853 -0.040512 0.045824 -0.330050 -0.616552 0.714794
0.015635 -0.040828 0.048423 -0.023968 -0.971320 0.236565
0.014691 -0.040364 0.046049 0.384297 -0.685963 0.617876
0.019538 -0.041839 0.044317 -0.247585 -0.962522 0.110695
-0.015635 -0.040828 0.048423 0.023968 -0.971320 0.236565
-0.019538 -0.041839 0.044317 0.247585 -0.962522 0.110695
-0.014691 -0.040364 0.046049 -0.384297 -0.685963 0.617876
0.023682 -0.031062 0.048681 0.542653 -0.035924 0.839188
0.028502 -0.036657 0.044850 0.496632 -0.227832 0.837525
-0.023682 -0.031062 0.048681 -0.542653 -0.035924 0.839188
-0.028502 -0.036657 0.044850 -0.496633 -0.227832 0.837525
0.040717 0.014768 0.034769 0.399600 0.115334 0.909405
-0.040717 0.014768 0.034769 -0.399600 0.115334 0.909405
0.032698 0.014707 0.037319 0.253033 0.080441 0.964108
-0.032698 0.014707 0.037319 -0.253033 0.080441 0.964108
0.045890 -0.047287 0.029832 0.715387 -0.183577 0.674182
0.037473 -0.045035 0.037265 0.562299 -0.159638 0.811379
0.038784 -0.060418 0.033111 0.669630 -0.180995 0.720303
-0.045890 -0.047287 0.029832 -0.715387 -0.183577 0.674182
-0.038784 -0.060418 0.033111 -0.669630 -0.180995 0.720303
-0.037473 -0.045035 0.037265 -0.562299 -0.159638 0.811379
0.032888 -0.053825 0.037958 0.499530 -0.124817 0.857258
-0.032888 -0.053825 0.037958 -0.499530 -0.124817 0.857258
0.007697 -0.060954 0.049859 0.237586 -0.188923 0.952817
0.006996 -0.052918 0.054483 0.277089 -0.311587 0.908920
0.000000 -0.061496 0.050714 0.000000 -0.201517 0.979485
-0.007697 -0.060954 0.049859 -0.237586 -0.188923 0.952817
-0.006996 -0.052918 0.054483 -0.277089 -0.311588 0.908920
0.000000 -0.053651 0.055354 -0.000000 -0.358936 0.933362
0.020568 -0.044777 0.045209 0.424428 0.593009 0.684252
0.021961 -0.045983 0.044798 0.516585 0.249419 0.819103
0.023212 -0.043291 0.042582 -0.162590 -0.070894 0.984144
-0.020568 -0.044777 0.045209 -0.424428 0.593009 0.684253
-0.023212 -0.043291 0.042582 0.162590 -0.070894 0.984144
-0.021961 -0.045983 0.044798 -0.516585 0.249419 0.819103
0.024562 -0.043426 0.042839 0.137119 -0.121294 0.983100
-0.024562 -0.043426 0.042839 -0.137119 -0.121294 0.983100
0.037452 0.031653 0.039724 0.245669 -0.561851 0.789918
0.036701 0.029277 0.037243 0.305836 -0.499718 0.810399
0.041610 0.030591 0.037196 0.365914 -0.615618 0.697941
-0.037452 0.031653 0.039724 -0.245669 -0.561851 0.789917
-0.041610 0.030591 0.037196 -0.365914 -0.615618 0.697941
-0.036701 0.029277 0.037243 -0.305836 -0.499718 0.810399
0.040184 0.028574 0.034830 0.416822 -0.496549 0.761379
-0.040184 0.028574 0.034830 -0.416822 -0.496549 0.761379
0.021935 0.031003 0.040006 0.093058 -0.614063 0.783752
0.017800 0.028600 0.038816 0.372177 -0.455937 0.808459
-0.021935 0.031003 0.040006 -0.093058 -0.614063 0.783752
-0.017800 0.028600 0.038816 -0.372177 -0.455937 0.808459
0.015464 -0.058194 0.047579 0.472596 -0.166198 0.865466
-0.015464 -0.058194 0.047579 -0.472595 -0.166198 0.865466
0.021697 -0.054404 0.044559 0.526184 -0.129495 0.840453
-0.021697 -0.054404 0.044559 -0.526184 -0.129495 0.840453
0.058431 -0.052480 0.009241 0.871795 -0.287054 0.396956
0.054362 -0.040305 0.021099 0.798572 -0.202546 0.566796
0.050006 -0.061351 0.018925 0.809391 -0.307899 0.500085
-0.058431 -0.052480 0.009241 -0.871795 -0.287054 0.396956
-0.050006 -0.061351 0.018925 -0.809391 -0.307899 0.500085
-0.054362 -0.040305 0.021099 -0.798572 -0.202546 0.566796
0.017762 -0.026839 0.052131 0.521500 0.124773 0.844079
0.023116 -0.015662 0.045901 0.416863 0.091897 0.904312
0.014056 -0.017142 0.052411 0.660301 -0.103577 0.743824
-0.017762 -0.026839 0.052131 -0.521499 0.124773 0.844079
-0.014056 -0.017142 0.052411 -0.660301 -0.103577 0.743824
-0.023116 -0.015662 0.045901 -0.416863 0.091897 0.904312
0.017858 -0.009783 0.048505 0.749528 0.009010 0.661911
-0.017858 -0.009783 0.048505 -0.749528 0.009010 0.661911
0.055998 0.057155 0.027243 0.796580 0.167834 0.580769
0.063744 0.047856 0.015917 0.878039 0.053129 0.475631
0.062793 0.066154 0.014258 0.844216 0.138905 0.517691
-0.055998 0.057155 0.027243 -0.796580 0.167834 0.580769
-0.062793 0.066154 0.014258 -0.844216 0.138905 0.517691
-0.063744 0.047856 0.015917 -0.878039 0.053129 0.475631
0.070880 0.054348 0.000996 0.902747 0.044063 0.427910
-0.070880 0.054348 0.000996 -0.902747 0.044063 0.427910
0.000000 -0.004632 0.075866 0.000000 0.112126 0.993694
0.004964 -0.004757 0.074404 0.514420 0.101096 0.851558
0.000000 0.003657 0.072429 0.000000 0.480985 0.876729
-0.004964 -0.004757 0.074404 -0.514420 0.101096 0.851558
0.004783 0.002958 0.071010 0.541897 0.423678 0.725841
-0.004783 0.002958 0.071010 -0.541897 0.423678 0.725841
0.037752 0.020394 0.036462 0.380638 0.038266 0.923932
0.036701 0.023602 0.036352 0.380806 0.004875 0.924642
0.031984 0.019858 0.037970 0.174947 0.012386 0.984500
-0.037752 0.020394 0.036462 -0.380638 0.038266 0.923932
-0.031984 0.019858 0.037970 -0.174947 0.012386 0.984500
-0.036701 0.023602 0.036352 -0.380806 0.004875 0.924642
0.031772 0.022943 0.037757 0.138446 -0.030188 0.989910
-0.031772 0.022943 0.037757 -0.138446 -0.030188 0.989910
0.017291 -0.046187 0.048545 0.553678 0.393140 0.734086
0.018386 -0.048287 0.048237 0.614312 0.029176 0.788524
-0.017291 -0.046187 0.048545 -0.553678 0.393140 0.734086
-0.018386 -0.048287 0.048237 -0.614312 0.029176 0.788524
0.038329 -0.015373 0.041377 0.466432 -0.012669 0.884466
0.052785 -0.022389 0.028612 0.726667 -0.138113 0.672964
-0.052785 -0.022389 0.028612 -0.726667 -0.138113 0.672964
-0.038329 -0.015373 0.041377 -0.466432 -0.012669 0.884466
0.043869 -0.026833 0.036439 0.616711 -0.117697 0.778341
-0.043869 -0.026833 0.036439 -0.616711 -0.117697 0.778341
0.009978 -0.069309 0.049796 0.289857 0.037984 0.956316
0.000000 -0.069915 0.051535 -0.000000 0.047420 0.998875
-0.009978 -0.069309 0.049796 -0.289857 0.037984 0.956316
0.013251 -0.051065 0.052050 0.524247 -0.167754 0.834879
-0.013251 -0.051065 0.052050 -0.524247 -0.167754 0.834879
0.012558 -0.047879 0.052371 0.471054 0.185689 0.862338
-0.012558 -0.047879 0.052371 -0.471054 0.185689 0.862338
0.000000 -0.050196 0.056014 0.000000 0.022828 0.999739
0.006697 -0.049498 0.055096 0.256590 0.056021 0.964895
-0.006697 -0.049498 0.055096 -0.256590 0.056021 0.964895
0.028449 -0.007209 0.044331 0.330247 0.112236 0.937198
0.029619 -0.022742 0.044409 0.446858 0.038522 0.893775
-0.029619 -0.022742 0.044409 -0.446858 0.038522 0.893775
-0.028449 -0.007209 0.044331 -0.330247 0.112236 0.937198
0.024129 -0.082589 0.041192 0.628868 -0.341391 0.698554
0.023090 -0.089742 0.036091 0.612623 -0.525573 0.590310
-0.024129 -0.082589 0.041192 -0.628868 -0.341391 0.698554
-0.023090 -0.089742 0.036091 -0.612623 -0.525573 0.590310
0.007664 0.031821 0.048615 0.600149 -0.061983 0.797483
0.010314 0.023827 0.046158 0.837290 0.213471 0.503365
0.013142 0.031049 0.042314 0.580344 -0.368944 0.726003
-0.007664 0.031821 0.048615 -0.600149 -0.061983 0.797483
-0.013142 0.031049 0.042314 -0.580344 -0.368944 0.726003
-0.010314 0.023827 0.046158 -0.837290 0.213471 0.503365
0.012556 0.024671 0.042038 0.762212 0.109018 0.638081
-0.012556 0.024671 0.042038 -0.762212 0.109018 0.638081
0.032082 0.032239 0.041158 0.061653 -0.525561 0.848519
0.026738 0.032053 0.040922 -0.010389 -0.559005 0.829099
0.031772 0.029641 0.038770 0.100764 -0.456936 0.883774
-0.032082 0.032239 0.041158 -0.061653 -0.525561 0.848519
-0.031772 0.029641 0.038770 -0.100764 -0.456936 0.883774
-0.026738 0.032053 0.040922 0.010389 -0.559005 0.829099
0.027240 0.029618 0.038718 -0.050417 -0.455029 0.889048
-0.027240 0.029618 0.038718 0.050417 -0.455029 0.889048
0.045300 0.029100 0.033397 0.430269 -0.552916 0.713549
-0.045300 0.029100 0.033397 -0.430269 -0.552916 0.713549
0.004639 0.009554 0.066336 0.574596 0.471381 0.669059
0.008848 0.006587 0.062332 0.830507 0.342769 0.439052
0.005166 0.015836 0.061484 0.620331 0.459267 0.635817
-0.004639 0.009554 0.066336 -0.574596 0.471381 0.669059
-0.005166 0.015836 0.061484 -0.620331 0.459267 0.635817
-0.008848 0.006587 0.062332 -0.830508 0.342769 0.439052
0.009014 0.012370 0.057543 0.838166 0.316628 0.444099
-0.009014 0.012370 0.057543 -0.838166 0.316628 0.444099
0.012209 0.041422 0.051060 0.231098 -0.366400 0.901302
0.000000 0.040190 0.052848 -0.000000 -0.165703 0.986176
-0.012209 0.041422 0.051060 -0.231098 -0.366400 0.901302
0.000000 0.032710 0.052360 -0.000000 0.266398 0.963863
0.057333 0.014117 0.024317 0.677218 0.130968 0.724033
0.050620 0.019344 0.027761 0.578181 0.151024 0.801809
0.052587 0.009458 0.029743 0.622634 0.143114 0.769315
-0.057333 0.014117 0.024317 -0.677218 0.130968 0.724033
-0.052587 0.009458 0.029743 -0.622634 0.143114 0.769315
-0.050620 0.019344 0.027761 -0.578181 0.151024 0.801809
0.047068 0.016510 0.031095 0.528719 0.186414 0.828074
-0.047068 0.016510 0.031095 -0.528719 0.186414 0.828073
0.017554 0.035291 0.043277 0.264440 -0.592688 0.760785
-0.017554 0.035291 0.043277 -0.264440 -0.592688 0.760785
0.012364 -0.015856 0.054805 0.555359 -0.472382 0.684421
0.005974 -0.020137 0.058665 0.538481 -0.241034 0.807429
-0.005974 -0.020137 0.058665 -0.538481 -0.241034 0.807429
-0.012364 -0.015856 0.054805 -0.555359 -0.472382 0.684421
0.006624 -0.018193 0.058638 0.721885 -0.205342 0.660846
-0.006624 -0.018193 0.058638 -0.721885 -0.205342 0.660846
0.016113 0.003393 0.048954 0.758598 0.218189 0.613940
0.023423 0.005722 0.042943 0.427055 0.263958 0.864841
-0.023423 0.005722 0.042943 -0.427055 0.263958 0.864841
-0.016113 0.003393 0.048954 -0.758598 0.218189 0.613940
0.021037 -0.001639 0.045661 0.521964 0.155045 0.838758
-0.021037 -0.001639 0.045661 -0.521964 0.155045 0.838758
0.009469 -0.010352 0.065123 0.495555 -0.800738 0.336517
0.012222 -0.011824 0.059525 0.372449 -0.821234 0.432269
0.011261 -0.009336 0.065388 0.669146 -0.563849 0.484065
-0.009469 -0.010352 0.065123 -0.495555 -0.800738 0.336517
-0.011261 -0.009336 0.065388 -0.669146 -0.563849 0.484065
-0.012222 -0.011824 0.059525 -0.372449 -0.821234 0.432269
0.014431 -0.011428 0.059051 0.575593 -0.650716 0.495239
-0.014431 -0.011428 0.059051 -0.575593 -0.650716 0.495239
0.021643 0.021899 0.038518 0.148296 0.392267 0.907819
-0.021643 0.021899 0.038518 -0.148296 0.392267 0.907819
0.018599 0.023558 0.038432 0.365847 0.372972 0.852671
-0.018599 0.023558 0.038432 -0.365847 0.372972 0.852671
0.012468 0.002303 0.056810 0.877545 0.313647 0.362685
-0.012468 0.002303 0.056810 -0.877545 0.313647 0.362685
0.015424 -0.001368 0.052010 0.883060 0.229819 0.409131
-0.015424 -0.001368 0.052010 -0.883060 0.229819 0.409131
0.050853 -0.071786 0.007147 0.844019 -0.387152 0.371140
0.040689 -0.079931 0.019251 0.787437 -0.408316 0.461758
-0.050853 -0.071786 0.007147 -0.844019 -0.387152 0.371140
-0.040689 -0.079931 0.019251 -0.787437 -0.408316 0.461758
0.041353 -0.069966 0.026720 0.772189 -0.316035 0.551222
-0.041353 -0.069966 0.026720 -0.772189 -0.316035 0.551222
0.012555 0.008023 0.053076 0.846061 0.263748 0.463268
-0.012555 0.008023 0.053076 -0.846061 0.263748 0.463268
0.033881 0.037220 0.043090 0.150961 -0.375653 0.914383
0.040758 0.036754 0.040761 0.390903 -0.370402 0.842613
0.037350 0.045082 0.045505 0.365503 -0.236183 0.900347
-0.033881 0.037220 0.043090 -0.150961 -0.375653 0.914383
-0.037350 0.045082 0.045505 -0.365503 -0.236183 0.900347
-0.040758 0.036754 0.040761 -0.390903 -0.370402 0.842613
0.045886 0.043020 0.040485 0.556214 -0.183239 0.810586
-0.045886 0.043020 0.040485 -0.556214 -0.183238 0.810586
0.009234 0.000731 0.066719 0.798685 0.346320 0.492103
-0.009234 0.000731 0.066719 -0.798685 0.346320 0.492103
0.009230 -0.005290 0.070034 0.786795 0.075094 0.612629
-0.009230 -0.005290 0.070034 -0.786795 0.075094 0.612629
0.033118 -0.076608 0.033830 0.723361 -0.313158 0.615370
-0.033118 -0.076608 0.033830 -0.723361 -0.313158 0.615370
0.018914 0.082364 0.042750 0.215044 0.350112 0.911689
-0.018914 0.082364 0.042750 -0.215044 0.350112 0.911689
0.026501 -0.050036 0.041885 0.497928 -0.101017 0.861315
-0.026501 -0.050036 0.041885 -0.497928 -0.101017 0.861315
0.046710 0.026645 0.030841 0.501367 -0.350182 0.791204
0.049886 0.030747 0.030839 0.557568 -0.419298 0.716454
-0.049886 0.030747 0.030839 -0.557568 -0.419298 0.716454
-0.046710 0.026645 0.030841 -0.501367 -0.350182 0.791204
0.051718 0.025358 0.026709 0.565809 -0.183351 0.803892
-0.051718 0.025358 0.026709 -0.565809 -0.183351 0.803892
0.039866 0.051095 0.044663 0.503297 0.107981 0.857340
-0.039866 0.051095 0.044663 -0.503297 0.107981 0.857340
0.049859 0.048025 0.037520 0.701021 0.076263 0.709052
-0.049859 0.048025 0.037520 -0.701021 0.076263 0.709052
0.004161 -0.014664 0.064477 0.746171 -0.568939 0.345742
0.004602 -0.013341 0.067874 0.723517 -0.681684 0.108764
0.003199 -0.016079 0.065087 0.722619 -0.563211 0.400768
-0.004161 -0.014664 0.064477 -0.746171 -0.568939 0.345742
-0.003199 -0.016079 0.065087 -0.722619 -0.563211 0.400768
-0.004602 -0.013341 0.067874 -0.723517 -0.681684 0.108764
0.003873 -0.014100 0.069577 0.650657 -0.705513 0.280886
-0.003873 -0.014100 0.069577 -0.650657 -0.705513 0.280886
0.052533 0.038816 0.033632 0.689503 -0.239515 0.683534
0.055877 0.032081 0.026878 0.686118 -0.269356 0.675788
0.057210 0.042546 0.028309 0.828593 -0.022130 0.559413
-0.052533 0.038816 0.033632 -0.689503 -0.239515 0.683534
-0.057210 0.042546 0.028309 -0.828593 -0.022130 0.559414
-0.055877 0.032081 0.026878 -0.686118 -0.269356 0.675788
0.061300 0.033993 0.020385 0.834499 -0.066679 0.546960
-0.061300 0.033993 0.020385 -0.834499 -0.066679 0.546960
0.019296 -0.044118 0.044971 0.167429 0.900026 0.402394
0.022048 -0.043045 0.041625 -0.779335 0.083113 0.621071
-0.019296 -0.044118 0.044971 -0.167429 0.900026 0.402394
-0.022048 -0.043045 0.041625 0.779335 0.083113 0.621071
0.072973 0.007632 -0.000488 0.953043 -0.039236 0.300281
0.064652 0.009371 0.016899 0.825425 0.036748 0.563314
-0.072973 0.007632 -0.000488 -0.953043 -0.039236 0.300281
-0.064652 0.009371 0.016899 -0.825425 0.036748 0.563314
0.064076 0.022360 0.015608 0.822038 0.035178 0.568345
-0.064076 0.022360 0.015608 -0.822038 0.035178 0.568345
0.063381 -0.005293 0.018812 0.829520 -0.059548 0.555293
-0.063381 -0.005293 0.018812 -0.829520 -0.059548 0.555294
0.000000 -0.011269 0.074756 0.000000 -0.441740 0.897143
0.000000 -0.015011 0.071122 0.000000 -0.816624 0.577169
0.004270 -0.010941 0.073605 0.481157 -0.436742 0.760095
-0.004270 -0.010941 0.073605 -0.481157 -0.436742 0.760095
0.002426 -0.014629 0.070715 0.380930 -0.774509 0.505003
-0.002426 -0.014629 0.070715 -0.380930 -0.774509 0.505003
0.034926 -0.031958 0.041302 0.543448 -0.089841 0.834621
-0.034926 -0.031958 0.041302 -0.543448 -0.089841 0.834621
0.027240 0.023158 0.037772 -0.054171 0.046348 0.997456
0.026286 0.020359 0.038481 0.082453 0.170150 0.981962
-0.027240 0.023158 0.037772 0.054171 0.046348 0.997455
-0.026286 0.020359 0.038481 -0.082453 0.170150 0.981963
0.007315 -0.025367 0.058153 0.369961 0.061075 0.927037
-0.007315 -0.025367 0.058153 -0.369961 0.061075 0.927037
0.000000 -0.079422 0.051812 -0.000000 -0.160736 0.986997
0.012173 -0.078345 0.049693 0.339613 -0.107525 0.934399
-0.012173 -0.078345 0.049693 -0.339613 -0.107525 0.934399
0.031026 -0.043530 0.040959 0.410672 -0.262023 0.873322
-0.031026 -0.043530 0.040959 -0.410672 -0.262023 0.873322
0.007298 -0.015937 0.058332 0.650244 -0.374636 0.660932
-0.007298 -0.015937 0.058332 -0.650244 -0.374636 0.660932
0.057998 0.023495 0.022041 0.675004 -0.034186 0.737022
-0.057998 0.023495 0.022041 -0.675004 -0.034186 0.737022
0.046229 0.034747 0.036463 0.535675 -0.405836 0.740506
-0.046229 0.034747 0.036463 -0.535675 -0.405836 0.740506
0.071593 -0.008118 -0.000720 0.952791 -0.106933 0.284172
-0.071593 -0.008118 -0.000720 -0.952791 -0.106933 0.284172
0.006060 -0.039246 0.054449 0.097471 -0.897977 0.429112
-0.006060 -0.039246 0.054449 -0.097471 -0.897977 0.429112
0.011310 -0.039739 0.051896 0.083298 -0.930537 0.356598
-0.011310 -0.039739 0.051896 -0.083298 -0.930537 0.356598
0.015923 -0.012577 0.054569 0.837392 -0.464938 0.287415
-0.015923 -0.012577 0.054569 -0.837392 -0.464938 0.287415
0.013970 -0.013401 0.056304 0.476668 -0.710452 0.517731
-0.013970 -0.013401 0.056304 -0.476668 -0.710452 0.517731
0.017262 -0.009192 0.052734 0.983048 -0.081622 0.164178
-0.017262 -0.009192 0.052734 -0.983048 -0.081622 0.164178
0.032107 -0.085333 0.028020 0.740838 -0.435813 0.511103
-0.032107 -0.085333 0.028020 -0.740838 -0.435813 0.511103
0.027603 0.051010 0.050160 0.299019 0.026012 0.953892
-0.027603 0.051010 0.050160 -0.299019 0.026012 0.953892
0.005632 0.023077 0.055668 0.653542 0.431791 0.621643
-0.005632 0.023077 0.055668 -0.653542 0.431791 0.621643
0.000000 0.024733 0.057886 -0.000000 0.583182 0.812342
0.062349 -0.019444 0.016635 0.853111 -0.152321 0.498999
-0.062349 -0.019444 0.016635 -0.853111 -0.152321 0.498999
0.016156 -0.044759 0.048136 0.358811 0.743606 0.564185
-0.016156 -0.044759 0.048136 -0.358811 0.743606 0.564185
0.026445 0.045247 0.049216 0.260002 -0.373562 0.890421
-0.026445 0.045247 0.049216 -0.260002 -0.373562 0.890421
0.011811 -0.045800 0.051896 0.393672 0.506200 0.767323
-0.011811 -0.045800 0.051896 -0.393672 0.506200 0.767323
0.075422 -0.010493 -0.024313 0.980501 -0.099284 0.169588
0.076642 0.006731 -0.024359 0.984047 -0.080342 0.158732
-0.075422 -0.010493 -0.024313 -0.980501 -0.099284 0.169588
-0.076642 0.006731 -0.024359 -0.984047 -0.080342 0.158732
0.000000 -0.047456 0.055295 0.000000 0.381232 0.924479
0.006309 -0.046951 0.054494 0.200519 0.400623 0.894032
-0.006309 -0.046951 0.054494 -0.200519 0.400623 0.894032
0.000000 -0.045424 0.054048 0.000000 0.431731 0.902003
0.005832 -0.045180 0.053399 0.189681 0.463659 0.865472
-0.005832 -0.045180 0.053399 -0.189681 0.463659 0.865472
0.010988 -0.044588 0.051207 0.404859 0.520679 0.751653
0.015372 -0.044232 0.047455 0.449330 0.675146 0.585047
-0.010988 -0.044588 0.051207 -0.404859 0.520679 0.751653
-0.015372 -0.044232 0.047455 -0.449330 0.675146 0.585047
0.000000 0.017284 0.063167 -0.000000 0.579166 0.815210
0.059405 -0.062236 -0.006315 0.898847 -0.350479 0.263132
-0.059405 -0.062236 -0.006315 -0.898847 -0.350479 0.263132
0.067197 -0.047886 -0.017454 0.940414 -0.273239 0.202391
0.065832 -0.039413 0.000703 0.919826 -0.242819 0.308155
-0.067197 -0.047886 -0.017454 -0.940414 -0.273239 0.202391
-0.065832 -0.039413 0.000703 -0.919826 -0.242819 0.308155
0.010243 -0.039899 0.049267 0.341985 -0.585503 0.735005
-0.010243 -0.039899 0.049267 -0.341985 -0.585503 0.735005
0.000000 0.010594 0.067746 0.000000 0.569914 0.821704
0.005334 -0.039932 0.051382 0.207833 -0.503372 0.838703
-0.005334 -0.039932 0.051382 -0.207833 -0.503372 0.838703
0.041958 0.022352 0.033751 0.524085 0.102853 0.845433
-0.041958 0.022352 0.033751 -0.524085 0.102853 0.845433
0.040184 0.024837 0.034409 0.513650 0.006722 0.857973
-0.040184 0.024837 0.034409 -0.513650 0.006722 0.857973
0.000000 0.082618 0.044815 0.000000 0.328618 0.944463
0.026326 0.037138 0.043646 0.127250 -0.527480 0.839984
-0.026326 0.037138 0.043646 -0.127250 -0.527480 0.839984
0.000000 -0.017240 0.066014 -0.000000 -0.880061 0.474861
0.001799 -0.016899 0.065733 0.391198 -0.802228 0.450992
-0.001799 -0.016899 0.065733 -0.391198 -0.802228 0.450992
0.044658 0.024229 0.031552 0.542740 0.031623 0.839305
-0.044658 0.024229 0.031552 -0.542740 0.031623 0.839305
0.007671 -0.009680 0.070779 0.723218 -0.426908 0.542868
-0.007671 -0.009680 0.070779 -0.723218 -0.426908 0.542868
0.009467 0.019076 0.051968 0.833635 0.339800 0.435419
-0.009467 0.019076 0.051968 -0.833635 0.339799 0.435419
0.000000 -0.025219 0.059323 0.000000 -0.060641 0.998160
0.000000 -0.020890 0.060583 0.000000 -0.610083 0.792337
0.000000 -0.039183 0.055694 -0.000000 -0.901260 0.433280
0.000000 -0.039944 0.052195 0.000000 -0.513562 0.858052
0.016396 0.025563 0.038637 0.559981 -0.005242 0.828489
-0.016396 0.025563 0.038637 -0.559981 -0.005242 0.828489
0.007486 -0.010680 0.067983 0.603224 -0.753731 0.260789
-0.007486 -0.010680 0.067983 -0.603224 -0.753731 0.260789
0.069542 -0.024398 -0.001312 0.944971 -0.161805 0.284339
-0.069542 -0.024398 -0.001312 -0.944971 -0.161805 0.284339
0.072709 -0.028909 -0.022525 0.967221 -0.177035 0.182049
-0.072709 -0.028909 -0.022525 -0.967221 -0.177035 0.182049
0.060941 -0.032060 0.014735 0.845604 -0.214837 0.488671
-0.060941 -0.032060 0.014735 -0.845604 -0.214837 0.488671
0.011938 -0.013068 0.057377 0.386338 -0.750679 0.535933
-0.011938 -0.013068 0.057377 -0.386338 -0.750679 0.535933
0.010436 -0.014650 0.056625 0.520454 -0.531897 0.667991
-0.010436 -0.014650 0.056625 -0.520454 -0.531897 0.667991
3 0 1 2
3 3 4 5
3 6 7 8
3 9 10 11
3 12 13 14
3 15 16 17
3 18 19 20
3 21 22 23
3 24 20 19
3 25 23 22
3 26 27 28
3 29 30 27
3 31 28 27
3 31 27 30
3 32 33 34
3 35 36 37
3 38 34 33
3 39 37 36
3 26 28 40
3 29 41 30
3 42 40 28
3 43 30 41
3 44 45 34
3 46 36 47
3 48 34 45
3 49 47 36
3 34 38 44
3 36 46 39
3 50 44 38
3 51 39 46
3 52 53 54
3 55 56 57
3 58 54 53
3 59 57 56
3 60 61 62
3 60 63 61
3 64 62 61
3 65 61 63
3 66 67 6
3 68 1 69
3 7 6 67
3 0 69 1
3 70 71 72
3 73 74 75
3 76 72 71
3 77 75 74
3 40 42 78
3 41 79 43
3 80 78 42
3 81 43 79
3 82 83 84
3 82 84 85
3 86 84 83
3 87 85 84
3 88 89 90
3 91 92 93
3 94 90 89
3 95 93 92
3 96 97 98
3 99 100 101
3 102 98 97
3 103 101 100
3 80 104 78
3 81 79 105
3 106 78 104
3 107 105 79
3 108 109 110
3 111 112 113
3 13 110 109
3 17 113 112
3 114 78 115
3 116 117 79
3 106 115 78
3 107 79 117
3 71 118 76
3 75 77 119
3 120 76 118
3 121 119 77
3 122 123 124
3 125 126 127
3 128 124 123
3 129 127 126
3 130 131 132
3 133 132 134
3 135 132 131
3 135 134 132
3 136 137 138
3 139 140 141
3 142 138 137
3 143 141 140
3 144 145 146
3 147 148 149
3 150 146 145
3 151 149 148
3 152 153 67
3 154 69 155
3 7 67 153
3 0 155 69
3 98 102 156
3 100 157 103
3 158 156 102
3 159 103 157
3 160 161 162
3 163 164 165
3 122 162 161
3 125 165 164
3 166 167 168
3 169 170 171
3 172 168 167
3 173 171 170
3 174 175 176
3 177 178 179
3 180 176 175
3 181 179 178
3 182 183 184
3 182 184 185
3 186 184 183
3 187 185 184
3 188 189 190
3 191 192 193
3 194 190 189
3 195 193 192
3 196 197 136
3 198 139 199
3 137 136 197
3 141 199 139
3 70 200 201
3 73 202 203
3 204 201 200
3 205 203 202
3 206 130 207
3 208 207 133
3 132 207 130
3 132 133 207
3 158 197 156
3 159 157 199
3 209 156 197
3 210 199 157
3 209 197 211
3 210 212 199
3 196 211 197
3 198 199 212
3 135 131 213
3 135 213 134
3 214 213 131
3 215 134 213
3 200 216 217
3 203 218 219
3 167 217 216
3 171 219 218
3 220 62 221
3 222 223 63
3 64 221 62
3 65 63 223
3 166 40 114
3 169 116 41
3 78 114 40
3 79 41 116
3 224 225 226
3 227 228 229
3 230 226 225
3 231 229 228
3 232 233 234
3 235 236 237
3 238 234 233
3 239 237 236
3 146 150 240
3 148 241 151
3 10 240 150
3 3 151 241
3 242 243 244
3 245 246 247
3 248 244 243
3 249 247 246
3 53 174 58
3 57 59 177
3 176 58 174
3 178 177 59
3 250 251 224
3 252 227 251
3 253 224 251
3 253 251 227
3 254 255 256
3 257 258 259
3 260 256 255
3 261 259 258
3 250 224 262
3 252 263 227
3 226 262 224
3 228 227 263
3 168 264 265
3 170 266 267
3 268 265 264
3 269 267 266
3 48 270 271
3 49 272 273
3 274 271 270
3 275 273 272
3 276 277 278
3 279 280 281
3 282 278 277
3 283 281 280
3 66 6 284
3 68 285 1
3 286 284 6
3 287 1 285
3 90 94 288
3 92 289 95
3 290 288 94
3 291 95 289
3 292 162 293
3 294 295 164
3 296 293 162
3 297 164 295
3 270 48 298
3 273 299 49
3 45 298 48
3 47 49 299
3 300 301 302
3 303 304 305
3 306 302 301
3 307 305 304
3 186 183 308
3 187 309 185
3 310 308 183
3 311 185 309
3 97 96 312
3 101 313 99
3 220 312 96
3 222 99 313
3 86 52 314
3 87 315 55
3 54 314 52
3 56 55 315
3 158 316 197
3 159 199 317
3 137 197 316
3 141 317 199
3 76 120 32
3 77 35 121
3 33 32 120
3 37 121 35
3 240 318 319
3 241 320 321
3 322 319 318
3 323 321 320
3 302 306 324
3 304 325 307
3 326 324 306
3 327 307 325
3 328 329 330
3 331 332 333
3 334 330 329
3 335 333 332
3 336 337 338
3 339 340 341
3 342 338 337
3 343 341 340
3 344 345 14
3 346 16 347
3 12 14 345
3 15 347 16
3 306 336 326
3 307 327 339
3 338 326 336
3 340 339 327
3 348 20 349
3 350 351 22
3 352 349 20
3 353 22 351
3 354 349 256
3 355 258 351
3 254 256 349
3 257 351 258
3 356 357 358
3 356 359 357
3 360 358 357
3 361 357 359
3 242 186 243
3 245 247 187
3 308 243 186
3 309 187 247
3 200 217 204
3 203 205 218
3 362 204 217
3 363 218 205
3 364 66 365
3 366 367 68
3 284 365 66
3 285 68 367
3 166 368 40
3 169 41 369
3 26 40 368
3 29 369 41
3 370 371 207
3 370 207 372
3 206 207 371
3 208 372 207
3 72 271 216
3 74 219 272
3 274 216 271
3 275 272 219
3 128 123 316
3 129 317 127
3 373 316 123
3 374 127 317
3 375 328 268
3 376 269 331
3 330 268 328
3 332 331 269
3 233 152 238
3 237 239 154
3 67 238 152
3 69 154 239
3 319 322 337
3 320 341 323
3 377 337 322
3 378 323 341
3 232 234 144
3 235 147 236
3 145 144 234
3 149 236 147
3 124 128 97
3 126 101 129
3 102 97 128
3 103 129 101
3 379 319 336
3 380 339 320
3 337 336 319
3 341 320 339
3 102 128 158
3 103 159 129
3 316 158 128
3 317 129 159
3 138 345 136
3 140 139 347
3 344 136 345
3 346 347 139
3 381 348 354
3 382 355 350
3 349 354 348
3 351 350 355
3 28 383 42
3 30 43 384
3 385 42 383
3 386 384 43
3 274 172 216
3 275 219 173
3 167 216 172
3 171 173 219
3 168 387 264
3 170 267 388
3 389 264 387
3 390 388 267
3 387 391 89
3 388 93 392
3 94 89 391
3 95 392 93
3 42 385 80
3 43 81 386
3 108 80 385
3 111 386 81
3 204 362 122
3 205 125 363
3 123 122 362
3 127 363 125
3 80 108 104
3 81 105 111
3 110 104 108
3 112 111 105
3 296 124 312
3 297 313 126
3 97 312 124
3 101 126 313
3 312 220 393
3 313 394 222
3 221 393 220
3 223 222 394
3 395 324 52
3 396 55 325
3 53 52 324
3 57 325 55
3 224 253 397
3 227 398 253
3 399 397 253
3 399 253 398
3 70 201 354
3 73 355 202
3 400 354 201
3 401 202 355
3 402 196 344
3 403 346 198
3 136 344 196
3 139 198 346
3 250 404 83
3 252 85 405
3 395 83 404
3 396 405 85
3 211 196 406
3 212 407 198
3 402 406 196
3 403 198 407
3 72 76 271
3 74 272 77
3 32 271 76
3 35 77 272
3 324 326 53
3 325 57 327
3 174 53 326
3 177 327 57
3 408 409 381
3 410 382 411
3 348 381 409
3 350 411 382
3 213 214 412
3 213 412 215
3 413 412 214
3 414 215 412
3 290 94 172
3 291 173 95
3 391 172 94
3 392 95 173
3 412 413 415
3 412 415 414
3 416 415 413
3 417 414 415
3 251 250 82
3 251 82 252
3 83 82 250
3 85 252 82
3 271 32 48
3 272 49 35
3 34 48 32
3 36 35 49
3 365 190 364
3 367 366 192
3 194 364 190
3 195 192 366
3 418 406 419
3 420 421 407
3 402 419 406
3 403 407 421
3 397 399 244
3 398 246 399
3 422 244 399
3 422 399 246
3 14 419 344
3 16 346 421
3 402 344 419
3 403 421 346
3 423 160 292
3 424 294 163
3 162 292 160
3 164 163 294
3 425 426 423
3 427 424 428
3 160 423 426
3 163 428 424
3 278 282 88
3 280 91 283
3 89 88 282
3 93 283 91
3 385 429 108
3 386 111 430
3 109 108 429
3 113 430 111
3 184 186 431
3 184 431 187
3 242 431 186
3 245 187 431
3 316 373 137
3 317 141 374
3 142 137 373
3 143 374 141
3 62 371 60
3 63 60 372
3 370 60 371
3 370 372 60
3 383 432 385
3 384 386 433
3 429 385 432
3 430 433 386
3 301 379 306
3 305 307 380
3 336 306 379
3 339 380 307
3 188 434 189
3 191 193 435
3 436 189 434
3 437 435 193
3 404 302 395
3 405 396 304
3 324 395 302
3 325 304 396
3 256 260 71
3 258 75 261
3 118 71 260
3 119 261 75
3 409 18 348
3 411 350 21
3 20 348 18
3 22 21 350
3 83 395 86
3 85 87 396
3 52 86 395
3 55 396 87
3 84 86 438
3 84 438 87
3 314 438 86
3 315 87 438
3 89 282 387
3 93 388 283
3 389 387 282
3 390 283 388
3 110 13 345
3 112 347 17
3 12 345 13
3 15 17 347
3 172 274 290
3 173 291 275
3 270 290 274
3 273 275 291
3 349 352 254
3 351 257 353
3 377 254 352
3 378 353 257
3 150 436 10
3 151 3 437
3 11 10 436
3 5 437 3
3 354 256 70
3 355 73 258
3 71 70 256
3 75 258 73
3 404 439 302
3 405 304 440
3 300 302 439
3 303 440 304
3 357 441 360
3 357 361 441
3 442 360 441
3 443 441 361
3 404 250 439
3 405 440 252
3 262 439 250
3 263 252 440
3 244 422 242
3 246 245 422
3 431 242 422
3 431 422 245
3 318 9 444
3 321 445 4
3 11 444 9
3 5 4 445
3 183 358 310
3 185 311 359
3 446 310 358
3 447 359 311
3 338 342 175
3 340 179 343
3 24 175 342
3 25 343 179
3 224 397 225
3 227 229 398
3 448 225 397
3 449 398 229
3 10 9 240
3 3 241 4
3 318 240 9
3 321 4 241
3 19 180 24
3 23 25 181
3 175 24 180
3 179 181 25
3 194 234 364
3 195 366 236
3 238 364 234
3 239 236 366
3 293 296 393
3 295 394 297
3 312 393 296
3 313 297 394
3 397 244 448
3 398 449 246
3 248 448 244
3 249 246 449
3 217 114 362
3 218 363 116
3 115 362 114
3 117 116 363
3 145 189 150
3 149 151 193
3 436 150 189
3 437 193 151
3 368 265 450
3 369 450 266
3 451 450 265
3 451 266 450
3 360 442 334
3 361 335 443
3 330 334 442
3 332 443 335
3 27 26 450
3 27 450 29
3 368 450 26
3 369 29 450
3 31 452 28
3 31 30 452
3 383 28 452
3 384 452 30
3 234 194 145
3 236 149 195
3 189 145 194
3 193 195 149
3 452 453 383
3 452 384 453
3 432 383 453
3 433 453 384
3 326 338 174
3 327 177 340
3 175 174 338
3 179 340 177
3 254 377 255
3 257 259 378
3 322 255 377
3 323 378 259
3 364 238 66
3 366 68 239
3 67 66 238
3 69 239 68
3 70 72 200
3 73 203 74
3 216 200 72
3 219 74 203
3 167 166 217
3 171 218 169
3 114 217 166
3 116 169 218
3 290 270 288
3 291 289 273
3 298 288 270
3 299 273 289
3 166 168 368
3 169 369 170
3 265 368 168
3 266 170 369
3 446 278 310
3 447 311 280
3 88 310 278
3 91 280 311
3 6 8 286
3 1 287 2
3 454 286 8
3 455 2 287
3 446 334 456
3 447 457 335
3 329 456 334
3 333 335 457
3 122 124 162
3 125 164 126
3 296 162 124
3 297 126 164
3 153 454 7
3 155 0 455
3 8 7 454
3 2 455 0
3 96 371 220
3 99 222 372
3 62 220 371
3 63 372 222
3 446 358 334
3 447 335 359
3 360 334 358
3 361 359 335
3 413 406 416
3 414 417 407
3 418 416 406
3 420 407 417
3 214 211 413
3 215 414 212
3 406 413 211
3 407 212 414
3 131 209 214
3 134 215 210
3 211 214 209
3 212 210 215
3 130 156 131
3 133 134 157
3 209 131 156
3 210 157 134
3 98 156 206
3 100 208 157
3 130 206 156
3 133 157 208
3 381 458 408
3 382 410 459
3 460 408 458
3 461 459 410
3 104 110 138
3 105 140 112
3 345 138 110
3 347 112 140
3 104 138 106
3 105 107 140
3 142 106 138
3 143 140 107
3 115 106 373
3 117 374 107
3 142 373 106
3 143 107 374
3 362 115 123
3 363 127 117
3 373 123 115
3 374 117 127
3 122 161 204
3 125 205 165
3 201 204 161
3 202 165 205
3 20 24 352
3 22 353 25
3 342 352 24
3 343 25 353
3 446 456 278
3 447 280 457
3 276 278 456
3 279 457 280
3 354 400 381
3 355 382 401
3 458 381 400
3 459 401 382
3 182 356 183
3 182 185 356
3 358 183 356
3 359 356 185
3 371 96 206
3 372 208 99
3 98 206 96
3 100 99 208
3 168 172 387
3 170 388 173
3 391 387 172
3 392 173 388
3 160 426 161
3 163 165 428
3 462 161 426
3 463 428 165
3 389 282 464
3 390 465 283
3 277 464 282
3 281 283 465
3 268 330 265
3 269 266 332
3 442 265 330
3 443 332 266
3 265 442 451
3 266 451 443
3 441 451 442
3 441 443 451
3 264 389 466
3 267 467 390
3 464 466 389
3 465 390 467
3 260 434 118
3 261 119 435
3 188 118 434
3 191 435 119
3 255 322 444
3 259 445 323
3 318 444 322
3 321 323 445
3 118 188 120
3 119 121 191
3 190 120 188
3 192 191 121
3 120 190 33
3 121 37 192
3 365 33 190
3 367 192 37
3 33 365 38
3 37 39 367
3 284 38 365
3 285 367 39
3 284 286 38
3 285 39 287
3 50 38 286
3 51 287 39
3 226 230 153
3 228 155 231
3 454 153 230
3 455 231 155
3 262 226 152
3 263 154 228
3 153 152 226
3 155 228 154
3 262 152 439
3 263 440 154
3 233 439 152
3 237 154 440
3 439 233 300
3 440 303 237
3 232 300 233
3 235 237 303
3 301 300 144
3 305 147 303
3 232 144 300
3 235 303 147
3 144 146 301
3 147 305 148
3 379 301 146
3 380 148 305
3 146 240 379
3 148 380 241
3 319 379 240
3 320 241 380
3 328 276 329
3 331 333 279
3 456 329 276
3 457 279 333
3 375 466 277
3 376 281 467
3 464 277 466
3 465 467 281
3 264 466 268
3 267 269 467
3 375 268 466
3 376 467 269
3 400 462 458
3 401 459 463
3 426 458 462
3 428 463 459
3 328 375 276
3 331 279 376
3 277 276 375
3 281 376 279
3 201 161 400
3 202 401 165
3 462 400 161
3 463 165 401
3 286 454 50
3 287 51 455
3 230 50 454
3 231 455 51
3 50 230 44
3 51 46 231
3 225 44 230
3 229 231 46
3 448 45 225
3 449 229 47
3 44 225 45
3 46 47 229
3 298 45 248
3 299 249 47
3 448 248 45
3 449 47 249
3 308 310 90
3 309 92 311
3 88 90 310
3 91 311 92
3 243 288 248
3 247 249 289
3 298 248 288
3 299 289 249
3 243 308 288
3 247 289 309
3 90 288 308
3 92 309 289
3 460 458 425
3 461 427 459
3 426 425 458
3 428 459 427
3 337 377 342
3 341 343 378
3 352 342 377
3 353 378 343
3 444 11 434
3 445 435 5
3 436 434 11
3 437 5 435
3 255 444 260
3 259 261 445
3 434 260 444
3 435 445 261
3 415 416 453
3 415 453 417
3 432 453 416
3 433 417 453
3 416 418 432
3 417 433 420
3 429 432 418
3 430 420 433
3 418 419 429
3 420 430 421
3 109 429 419
3 113 421 430
3 419 14 109
3 421 113 16
3 13 109 14
3 17 16 113
